Normalized EMG Linear Envelopes
nRows=38
nColumns=17

endheader
time	        VM	        VL	        RF	       GRA	        TA	   ADDLONG	   SEMIMEM	      BFLH	        GM	        GL	       TFL	   GLUTMAX	   GLUTMED	      PIRI	    OBTINT	        QF	
2.2875	  0.452552	  0.411812	  0.060391	  0.363938	  0.319267	  0.106456	  0.604169	  0.750226	  0.339059	  0.149628	  0.065525	  0.478153	  0.150342	  0.339951	  0.974882	  1.363050	
2.288	  0.455787	  0.416032	  0.060795	  0.362120	  0.318366	  0.105850	  0.598576	  0.749495	  0.339073	  0.150580	  0.065750	  0.477970	  0.150880	  0.340910	  0.973734	  1.362209	
2.2885	  0.459034	  0.420263	  0.061198	  0.360336	  0.317485	  0.105250	  0.592956	  0.748743	  0.339125	  0.151560	  0.065975	  0.477781	  0.151443	  0.341895	  0.972490	  1.361400	
2.289	  0.462292	  0.424502	  0.061601	  0.358587	  0.316624	  0.104655	  0.587312	  0.747971	  0.339214	  0.152569	  0.066201	  0.477585	  0.152032	  0.342905	  0.971150	  1.360623	
2.2895	  0.465561	  0.428748	  0.062003	  0.356873	  0.315785	  0.104065	  0.581647	  0.747181	  0.339343	  0.153607	  0.066426	  0.477383	  0.152647	  0.343941	  0.969718	  1.359879	
2.29	  0.468840	  0.433001	  0.062406	  0.355195	  0.314968	  0.103481	  0.575966	  0.746376	  0.339512	  0.154675	  0.066652	  0.477175	  0.153288	  0.345002	  0.968195	  1.359165	
2.2905	  0.472127	  0.437259	  0.062808	  0.353554	  0.314172	  0.102903	  0.570272	  0.745556	  0.339722	  0.155772	  0.066878	  0.476963	  0.153956	  0.346088	  0.966587	  1.358483	
2.291	  0.475421	  0.441519	  0.063210	  0.351950	  0.313397	  0.102330	  0.564568	  0.744725	  0.339974	  0.156899	  0.067104	  0.476746	  0.154651	  0.347199	  0.964897	  1.357830	
2.2915	  0.478722	  0.445782	  0.063612	  0.350383	  0.312645	  0.101763	  0.558858	  0.743884	  0.340269	  0.158055	  0.067330	  0.476526	  0.155373	  0.348334	  0.963129	  1.357207	
2.292	  0.482029	  0.450044	  0.064014	  0.348853	  0.311915	  0.101202	  0.553145	  0.743035	  0.340607	  0.159243	  0.067557	  0.476302	  0.156122	  0.349493	  0.961290	  1.356611	
2.2925	  0.485341	  0.454304	  0.064416	  0.347361	  0.311207	  0.100647	  0.547435	  0.742181	  0.340990	  0.160461	  0.067784	  0.476078	  0.156900	  0.350676	  0.959383	  1.356043	
2.293	  0.488656	  0.458562	  0.064817	  0.345907	  0.310521	  0.100098	  0.541728	  0.741324	  0.341417	  0.161710	  0.068011	  0.475852	  0.157705	  0.351883	  0.957415	  1.355500	
2.2935	  0.491974	  0.462815	  0.065219	  0.344490	  0.309857	  0.099555	  0.536030	  0.740465	  0.341890	  0.162991	  0.068239	  0.475627	  0.158539	  0.353112	  0.955391	  1.354981	
2.294	  0.495294	  0.467062	  0.065621	  0.343112	  0.309216	  0.099018	  0.530343	  0.739608	  0.342409	  0.164303	  0.068467	  0.475402	  0.159402	  0.354365	  0.953316	  1.354486	
2.2945	  0.498614	  0.471302	  0.066023	  0.341771	  0.308596	  0.098487	  0.524670	  0.738754	  0.342976	  0.165648	  0.068695	  0.475180	  0.160294	  0.355641	  0.951194	  1.354011	
2.295	  0.501934	  0.475534	  0.066425	  0.340468	  0.307999	  0.097962	  0.519015	  0.737906	  0.343591	  0.167024	  0.068924	  0.474960	  0.161215	  0.356939	  0.949032	  1.353555	
2.2955	  0.505252	  0.479756	  0.066827	  0.339203	  0.307425	  0.097442	  0.513379	  0.737065	  0.344254	  0.168433	  0.069153	  0.474744	  0.162166	  0.358259	  0.946833	  1.353117	
2.296	  0.508566	  0.483967	  0.067229	  0.337974	  0.306873	  0.096929	  0.507766	  0.736233	  0.344967	  0.169874	  0.069382	  0.474531	  0.163147	  0.359602	  0.944604	  1.352692	
2.2965	  0.511875	  0.488165	  0.067631	  0.336783	  0.306343	  0.096421	  0.502179	  0.735412	  0.345730	  0.171349	  0.069612	  0.474324	  0.164158	  0.360966	  0.942349	  1.352280	
2.297	  0.515177	  0.492349	  0.068034	  0.335628	  0.305835	  0.095918	  0.496619	  0.734603	  0.346544	  0.172856	  0.069843	  0.474122	  0.165198	  0.362352	  0.940074	  1.351877	
2.2975	  0.518470	  0.496518	  0.068437	  0.334509	  0.305350	  0.095422	  0.491090	  0.733807	  0.347409	  0.174396	  0.070073	  0.473925	  0.166270	  0.363759	  0.937783	  1.351481	
2.298	  0.521753	  0.500670	  0.068840	  0.333426	  0.304886	  0.094930	  0.485593	  0.733024	  0.348328	  0.175969	  0.070304	  0.473735	  0.167371	  0.365186	  0.935482	  1.351088	
2.2985	  0.525023	  0.504805	  0.069243	  0.332378	  0.304444	  0.094444	  0.480131	  0.732257	  0.349299	  0.177574	  0.070535	  0.473550	  0.168504	  0.366634	  0.933175	  1.350695	
2.299	  0.528279	  0.508921	  0.069647	  0.331364	  0.304023	  0.093963	  0.474705	  0.731504	  0.350325	  0.179213	  0.070767	  0.473371	  0.169667	  0.368102	  0.930869	  1.350299	
2.2995	  0.531518	  0.513017	  0.070051	  0.330384	  0.303624	  0.093487	  0.469318	  0.730767	  0.351407	  0.180885	  0.070998	  0.473200	  0.170863	  0.369589	  0.928569	  1.349897	
2.3	  0.534738	  0.517092	  0.070456	  0.329437	  0.303246	  0.093016	  0.463972	  0.730046	  0.352545	  0.182590	  0.071229	  0.473034	  0.172089	  0.371096	  0.926281	  1.349486	
2.3005	  0.537938	  0.521146	  0.070861	  0.328522	  0.302889	  0.092550	  0.458667	  0.729341	  0.353740	  0.184327	  0.071461	  0.472876	  0.173348	  0.372623	  0.924010	  1.349062	
2.301	  0.541115	  0.525177	  0.071267	  0.327639	  0.302552	  0.092088	  0.453407	  0.728651	  0.354993	  0.186098	  0.071692	  0.472726	  0.174639	  0.374170	  0.921765	  1.348624	
2.3015	  0.544269	  0.529185	  0.071673	  0.326787	  0.302236	  0.091630	  0.448191	  0.727977	  0.356306	  0.187901	  0.071923	  0.472584	  0.175963	  0.375736	  0.919551	  1.348169	
2.302	  0.547397	  0.533167	  0.072079	  0.325964	  0.301939	  0.091176	  0.443022	  0.727317	  0.357678	  0.189736	  0.072153	  0.472451	  0.177319	  0.377323	  0.917374	  1.347695	
2.3025	  0.550498	  0.537124	  0.072486	  0.325171	  0.301663	  0.090726	  0.437901	  0.726672	  0.359111	  0.191604	  0.072384	  0.472327	  0.178708	  0.378929	  0.915243	  1.347200	
2.303	  0.553571	  0.541055	  0.072892	  0.324406	  0.301405	  0.090279	  0.432828	  0.726039	  0.360606	  0.193503	  0.072613	  0.472214	  0.180131	  0.380557	  0.913163	  1.346682	
2.3035	  0.556613	  0.544958	  0.073299	  0.323668	  0.301166	  0.089835	  0.427806	  0.725419	  0.362162	  0.195434	  0.072842	  0.472112	  0.181586	  0.382204	  0.911142	  1.346139	
2.304	  0.559623	  0.548832	  0.073706	  0.322956	  0.300945	  0.089395	  0.422835	  0.724809	  0.363780	  0.197396	  0.073071	  0.472022	  0.183075	  0.383872	  0.909185	  1.345570	
2.3045	  0.562599	  0.552678	  0.074112	  0.322271	  0.300742	  0.088957	  0.417917	  0.724209	  0.365462	  0.199390	  0.073299	  0.471944	  0.184598	  0.385560	  0.907300	  1.344974	
2.305	  0.565540	  0.556495	  0.074518	  0.321609	  0.300555	  0.088521	  0.413053	  0.723618	  0.367208	  0.201413	  0.073526	  0.471879	  0.186154	  0.387268	  0.905493	  1.344351	
2.3055	  0.568443	  0.560281	  0.074923	  0.320972	  0.300383	  0.088088	  0.408242	  0.723033	  0.369019	  0.203467	  0.073752	  0.471826	  0.187745	  0.388995	  0.903770	  1.343700	
2.306	  0.571307	  0.564036	  0.075328	  0.320357	  0.300227	  0.087657	  0.403488	  0.722454	  0.370894	  0.205551	  0.073978	  0.471786	  0.189369	  0.390742	  0.902138	  1.343022	
